<svg width="70" height="80" viewBox="0 0 70 80" fill="none" xmlns="http://www.w3.org/2000/svg">
<g clip-path="url(#clip0_3_24)">
<path d="M57.9219 15.0156C54.0781 6.17188 45.2656 0 35 0C24.7344 0 15.9219 6.17188 12.0781 15.0156C9.51563 15.2344 7.5 17.375 7.5 20V30C7.5 32.625 9.51563 34.7656 12.0781 34.9844C15.9219 43.8281 24.7344 50 35 50C45.2656 50 54.0781 43.8281 57.9219 34.9844C60.4844 34.7656 62.5 32.625 62.5 30V20C62.5 17.375 60.4844 15.2344 57.9219 15.0156ZM52.5 22.5V25C52.5 33.2812 45.7812 40 37.5 40H32.5C24.2188 40 17.5 33.2812 17.5 25V22.5C17.5 18.3594 20.8594 15 25 15H45C49.1406 15 52.5 18.3594 52.5 22.5ZM29.5781 25.4219L28.6406 22.1094C28.5 21.5938 28.0312 21.25 27.5 21.25C26.9688 21.25 26.5 21.5938 26.3594 22.1094L25.4219 25.4219L22.1094 26.3594C21.5938 26.5 21.25 26.9688 21.25 27.5C21.25 28.0312 21.5938 28.5 22.1094 28.6406L25.4219 29.5781L26.3594 32.8906C26.5 33.4062 26.9688 33.75 27.5 33.75C28.0312 33.75 28.5 33.4062 28.6406 32.8906L29.5781 29.5781L32.8906 28.6406C33.4062 28.5 33.75 28.0312 33.75 27.5C33.75 26.9688 33.4062 26.5 32.8906 26.3594L29.5781 25.4219ZM17.6094 49.4531C7.29687 53.5312 0 63.5937 0 75.3594C0 77.9219 2.07813 80 4.64062 80H20V70C20 67.2344 22.2344 65 25 65H45C47.7656 65 50 67.2344 50 70V80H65.3594C67.9219 80 70 77.9219 70 75.3594C70 63.5937 62.7031 53.5312 52.3906 49.4531C47.4844 52.9375 41.4844 55 35 55C28.5156 55 22.5156 52.9375 17.6094 49.4531ZM27.5 70C26.125 70 25 71.125 25 72.5V80H30V72.5C30 71.125 28.875 70 27.5 70ZM42.5 75C43.163 75 43.7989 74.7366 44.2678 74.2678C44.7366 73.7989 45 73.163 45 72.5C45 71.837 44.7366 71.2011 44.2678 70.7322C43.7989 70.2634 43.163 70 42.5 70C41.837 70 41.2011 70.2634 40.7322 70.7322C40.2634 71.2011 40 71.837 40 72.5C40 73.163 40.2634 73.7989 40.7322 74.2678C41.2011 74.7366 41.837 75 42.5 75Z" fill="#C4CBF2"/>
</g>
<defs>
<clipPath id="clip0_3_24">
<rect width="70" height="80" fill="white"/>
</clipPath>
</defs>
</svg>
