<svg width="50" height="50" viewBox="0 0 50 50" fill="none" xmlns="http://www.w3.org/2000/svg">
<path d="M22.9167 33.3333V21.875C22.9167 19.9411 22.1484 18.0864 20.781 16.719C19.4135 15.3515 17.5589 14.5833 15.625 14.5833M22.9167 33.3333H8.33334V21.875C8.33334 19.9411 9.10157 18.0864 10.469 16.719C11.8365 15.3515 13.6911 14.5833 15.625 14.5833M22.9167 33.3333V41.6666M15.625 14.5833H29.1667M29.1667 14.5833V8.33331H34.375M29.1667 14.5833V20.8333M21.875 33.3333H41.6667V20.8333C41.6667 19.1757 41.0082 17.586 39.8361 16.4139C38.664 15.2418 37.0743 14.5833 35.4167 14.5833M31.25 33.3333V41.6666M14.5833 28.125H16.6667" stroke="#C4CBF2" stroke-width="2" stroke-linecap="round" stroke-linejoin="round"/>
</svg>
