<svg width="66" height="66" viewBox="0 0 66 66" fill="none" xmlns="http://www.w3.org/2000/svg">
<g clip-path="url(#clip0_3_31)">
<mask id="mask0_3_31" style="mask-type:luminance" maskUnits="userSpaceOnUse" x="0" y="0" width="66" height="66">
<path d="M0 0H66V66H0V0Z" fill="white"/>
<path fill-rule="evenodd" clip-rule="evenodd" d="M33.3198 17.5737C29.2966 17.5737 25.438 19.172 22.5931 22.0169C19.7482 24.8618 18.15 28.7203 18.15 32.7436C18.15 36.7669 19.7482 40.6254 22.5931 43.4703C25.438 46.3152 29.2966 47.9134 33.3198 47.9134C37.3431 47.9134 41.2016 46.3152 44.0465 43.4703C46.8914 40.6254 48.4897 36.7669 48.4897 32.7436C48.4897 28.7203 46.8914 24.8618 44.0465 22.0169C41.2016 19.172 37.3431 17.5737 33.3198 17.5737ZM15.6115 32.7461C15.5835 30.403 16.0208 28.0775 16.898 25.9046C17.7753 23.7317 19.0751 21.7545 20.7222 20.0876C22.3692 18.4208 24.3307 17.0974 26.493 16.1941C28.6552 15.2909 30.9752 14.8258 33.3186 14.8258C35.6619 14.8258 37.9819 15.2909 40.1442 16.1941C42.3064 17.0974 44.2679 18.4208 45.915 20.0876C47.562 21.7545 48.8618 23.7317 49.7391 25.9046C50.6164 28.0775 51.0537 30.403 51.0256 32.7461C50.9698 37.4056 49.0797 41.8553 45.7651 45.1305C42.4504 48.4057 37.9784 50.2424 33.3186 50.2424C28.6588 50.2424 24.1867 48.4057 20.8721 45.1305C17.5574 41.8553 15.6673 37.4056 15.6115 32.7461Z" fill="black"/>
<path fill-rule="evenodd" clip-rule="evenodd" d="M13.4538 41.9556C12.5984 43.6488 12.7228 44.456 12.9258 44.753C13.0959 45.0018 13.6265 45.3572 15.0531 45.3216C16.4137 45.2861 18.2515 44.8952 20.4651 44.1311C24.8795 42.608 30.5123 39.7015 36.2924 35.7491C42.0496 31.8145 46.4082 27.654 49.0405 24.1382C50.3605 22.374 51.2084 20.8255 51.6044 19.5893C52.0105 18.315 51.8684 17.6296 51.6475 17.3097C51.612 17.2564 51.5282 17.1498 51.1576 17.1117C50.7464 17.0686 50.1371 17.132 49.2817 17.3453C47.6825 17.7438 45.6238 18.5536 43.1335 19.5334L42.6081 19.739L41.679 17.3783L42.273 17.1422C44.6845 16.1928 46.8981 15.3221 48.6699 14.883C49.6295 14.6443 50.5738 14.4996 51.4165 14.586C52.2999 14.6773 53.1681 15.0353 53.7443 15.8755C54.6201 17.1574 54.5211 18.7998 54.021 20.3635C53.5057 21.9678 52.4852 23.7726 51.0713 25.6613C48.2358 29.4486 43.6539 33.792 37.7241 37.8459C31.812 41.8871 25.9761 44.9155 21.2926 46.53C18.9623 47.3346 16.8452 47.8144 15.1165 47.8576C13.4513 47.9007 11.7556 47.5403 10.8316 46.1873C9.76546 44.6286 10.2833 42.6004 11.187 40.8083C12.1491 38.9095 13.8092 36.7416 15.9593 34.4773L17.7997 36.2289C15.7308 38.4043 14.256 40.3666 13.4538 41.9556Z" fill="black"/>
</mask>
<g mask="url(#mask0_3_31)">
<path d="M33 66C51.2254 66 66 51.2254 66 33C66 14.7746 51.2254 0 33 0C14.7746 0 0 14.7746 0 33C0 51.2254 14.7746 66 33 66Z" fill="#C4CBF2"/>
</g>
</g>
<defs>
<clipPath id="clip0_3_31">
<rect width="66" height="66" fill="white"/>
</clipPath>
</defs>
</svg>
