<svg width="71" height="71" viewBox="0 0 71 71" fill="none" xmlns="http://www.w3.org/2000/svg">
<path fill-rule="evenodd" clip-rule="evenodd" d="M32.4423 18.2423L36.2289 14.4557C39.2772 11.4027 44.6306 9.28685 49.9461 8.52479C52.3028 8.15764 54.6995 8.12577 57.0651 8.43012C59.1619 8.74252 60.4447 9.35785 61.0411 9.95899C61.6422 10.5554 62.2575 11.8381 62.5699 13.935C62.8729 15.9561 62.8492 18.4317 62.4753 21.0539C61.7179 26.3695 59.5974 31.7229 56.5444 34.7711L35.5 55.8203L30.0756 50.3959C29.8559 50.1758 29.5949 50.0012 29.3077 49.882C29.0205 49.7628 28.7126 49.7013 28.4017 49.7011C28.0907 49.7009 27.7827 49.7619 27.4954 49.8807C27.208 49.9995 26.9468 50.1738 26.7268 50.3935C26.2824 50.8373 26.0325 51.4394 26.032 52.0674C26.0318 52.3784 26.0928 52.6864 26.2116 52.9737C26.3304 53.2611 26.5047 53.5223 26.7244 53.7423L33.8244 60.8423C34.0442 61.0627 34.3054 61.2376 34.5929 61.3569C34.8805 61.4762 35.1887 61.5376 35.5 61.5376C35.8113 61.5376 36.1195 61.4762 36.4071 61.3569C36.6946 61.2376 36.9558 61.0627 37.1756 60.8423L39.7647 58.2485L45.3027 67.4832C45.4874 67.7924 45.7402 68.0554 46.0419 68.2521C46.3436 68.4488 46.6862 68.5741 47.0436 68.6184C47.4011 68.6627 47.7639 68.6248 48.1045 68.5076C48.445 68.3905 48.7544 68.1971 49.0089 67.9423L58.4756 58.4757C58.7355 58.2153 58.9312 57.8979 59.0471 57.5487C59.1629 57.1995 59.1958 56.8281 59.143 56.464L56.942 41.0712L59.8956 38.1223C63.9426 34.0706 66.3235 27.5907 67.1613 21.7213C67.5873 18.7535 67.6346 15.8047 67.2512 13.2297C66.8725 10.7305 66.0395 8.25972 64.3923 6.60779C62.7403 4.96059 60.2695 4.12279 57.7656 3.74885C54.9465 3.37773 52.0889 3.4096 49.2787 3.84352C43.4047 4.67185 36.92 7.05272 32.8777 11.0997L29.9289 14.0533L14.5361 11.8523C14.172 11.7995 13.8005 11.8324 13.4513 11.9482C13.1021 12.0641 12.7848 12.2598 12.5244 12.5197L3.05773 21.9864C2.80293 22.2409 2.60958 22.5503 2.49243 22.8909C2.37527 23.2314 2.33738 23.5942 2.38166 23.9517C2.42594 24.3091 2.55122 24.6517 2.74794 24.9534C2.94467 25.2551 3.20765 25.5079 3.51687 25.6926L12.7469 31.2306L10.1577 33.8197C9.93733 34.0396 9.76247 34.3007 9.64316 34.5883C9.52385 34.8758 9.46243 35.184 9.46243 35.4953C9.46243 35.8066 9.52385 36.1149 9.64316 36.4024C9.76247 36.6899 9.93733 36.9511 10.1577 37.1709L17.2577 44.2709C17.4778 44.491 17.739 44.6655 18.0265 44.7846C18.314 44.9037 18.6221 44.965 18.9333 44.965C19.2445 44.965 19.5527 44.9037 19.8402 44.7846C20.1277 44.6655 20.3889 44.491 20.6089 44.2709C20.829 44.0509 21.0035 43.7896 21.1226 43.5022C21.2417 43.2146 21.303 42.9065 21.303 42.5953C21.303 42.2841 21.2417 41.976 21.1226 41.6885C21.0035 41.401 20.829 41.1398 20.6089 40.9197L15.1798 35.5001L18.2423 32.4423L32.4423 18.2423ZM47.8019 62.4517L43.2106 54.7979L52.7577 45.2555L54.2913 55.9623L47.8019 62.4517ZM16.2022 27.7847L25.7446 18.2423L15.0378 16.7087L8.55313 23.1934L16.2022 27.7847ZM11.1375 49.009C11.3576 48.7893 11.5322 48.5283 11.6514 48.2411C11.7706 47.9539 11.8321 47.646 11.8323 47.3351C11.8325 47.0241 11.7715 46.7161 11.6527 46.4287C11.5339 46.1414 11.3596 45.8802 11.1399 45.6602C10.9202 45.4401 10.6592 45.2655 10.372 45.1463C10.0848 45.0271 9.77694 44.9656 9.46597 44.9654C9.155 44.9652 8.84704 45.0262 8.55966 45.145C8.27228 45.2638 8.01111 45.4381 7.79107 45.6578L3.05773 50.3911C2.61396 50.8355 2.36491 51.438 2.36535 52.066C2.36579 52.6941 2.6157 53.2962 3.0601 53.74C3.5045 54.1837 4.10698 54.4328 4.73501 54.4323C5.36303 54.4319 5.96516 54.182 6.40893 53.7376L11.1375 49.009ZM18.2375 56.109C18.4636 55.8907 18.6439 55.6295 18.7679 55.3408C18.8919 55.052 18.9572 54.7415 18.96 54.4272C18.9627 54.113 18.9028 53.8014 18.7838 53.5105C18.6648 53.2196 18.4891 52.9554 18.2669 52.7332C18.0447 52.511 17.7804 52.3352 17.4896 52.2162C17.1987 52.0972 16.8871 52.0374 16.5728 52.0401C16.2586 52.0428 15.948 52.1081 15.6593 52.2322C15.3705 52.3562 15.1094 52.5365 14.8911 52.7625L5.4244 62.2292C4.98063 62.6736 4.73157 63.2761 4.73202 63.9041C4.73246 64.5321 4.98237 65.1343 5.42676 65.578C5.87116 66.0218 6.47364 66.2709 7.10167 66.2704C7.7297 66.27 8.33183 66.0201 8.7756 65.5757L18.2375 56.109ZM25.3375 63.209C25.5576 62.9893 25.7322 62.7283 25.8514 62.4411C25.9706 62.1539 26.0321 61.846 26.0323 61.5351C26.0325 61.2241 25.9715 60.9161 25.8527 60.6287C25.7339 60.3414 25.5596 60.0802 25.3399 59.8602C25.1202 59.6401 24.8592 59.4655 24.572 59.3463C24.2848 59.2271 23.9769 59.1656 23.666 59.1654C23.355 59.1652 23.047 59.2262 22.7597 59.345C22.4723 59.4638 22.2111 59.6381 21.9911 59.8578L17.2577 64.5911C16.814 65.0355 16.5649 65.638 16.5653 66.266C16.5658 66.8941 16.8157 67.4962 17.2601 67.94C17.7045 68.3837 18.307 68.6328 18.935 68.6323C19.563 68.6319 20.1652 68.382 20.6089 67.9376L25.3375 63.209ZM44.9667 31.9453C45.743 31.9453 46.5118 31.7924 47.2291 31.4953C47.9463 31.1982 48.5981 30.7627 49.147 30.2138C49.696 29.6648 50.1315 29.0131 50.4286 28.2958C50.7257 27.5785 50.8786 26.8098 50.8786 26.0334C50.8786 25.257 50.7257 24.4883 50.4286 23.771C50.1315 23.0537 49.696 22.402 49.147 21.853C48.5981 21.304 47.9463 20.8686 47.2291 20.5715C46.5118 20.2744 45.743 20.1215 44.9667 20.1215C43.3987 20.1215 41.895 20.7443 40.7863 21.853C39.6776 22.9617 39.0547 24.4654 39.0547 26.0334C39.0547 27.6013 39.6776 29.1051 40.7863 30.2138C41.895 31.3225 43.3987 31.9453 44.9667 31.9453Z" fill="#C4CBF2"/>
</svg>
